<?xml version="1.0" encoding="utf-8"?>
<!-- Generator: Adobe Illustrator 22.1.0, SVG Export Plug-In . SVG Version: 6.00 Build 0)  -->
<svg version="1.1" id="Layer_1" xmlns="http://www.w3.org/2000/svg" xmlns:xlink="http://www.w3.org/1999/xlink" x="0px" y="0px"
	 viewBox="0 0 1000 1000" style="enable-background:new 0 0 1000 1000;" xml:space="preserve">
<g>
	<polygon points="169.2,210.6 210.6,169.2 500,458.7 789.5,169.2 830.8,210.6 541.4,500 830.8,789.5 789.5,830.8 500,541.4 
		210.6,830.8 169.2,789.5 458.7,500 	"/>
	<path d="M500,996.5c-67,0-132-13.1-193.3-39c-59.1-25-112.2-60.8-157.8-106.4c-45.6-45.6-81.4-98.7-106.4-157.8
		C16.6,632,3.5,567,3.5,500c0-67,13.1-132,39-193.3c25-59.1,60.8-112.2,106.4-157.8s98.7-81.4,157.8-106.4C368,16.6,433,3.5,500,3.5
		c67,0,132,13.1,193.3,39c59.1,25,112.2,60.8,157.8,106.4c45.6,45.6,81.4,98.7,106.4,157.8c25.9,61.2,39,126.2,39,193.3
		c0,67-13.1,132-39,193.3c-25,59.1-60.8,112.2-106.4,157.8c-45.6,45.6-98.7,81.4-157.8,106.4C632,983.4,567,996.5,500,996.5z
		 M500,40.5c-62,0-122.2,12.1-178.9,36.1c-54.7,23.1-103.9,56.3-146.1,98.5s-75.3,91.3-98.5,146.1C52.6,377.8,40.5,438,40.5,500
		c0,62,12.1,122.2,36.1,178.9c23.1,54.7,56.3,103.9,98.5,146.1c42.2,42.2,91.3,75.3,146.1,98.5c56.6,24,116.8,36.1,178.9,36.1
		c62,0,122.2-12.1,178.9-36.1c54.7-23.1,103.9-56.3,146.1-98.5c42.2-42.2,75.3-91.3,98.5-146.1c24-56.6,36.1-116.8,36.1-178.9
		c0-62-12.1-122.2-36.1-178.9c-23.1-54.7-56.3-103.9-98.5-146.1c-42.2-42.2-91.3-75.3-146.1-98.5C622.2,52.6,562,40.5,500,40.5z"/>
</g>
</svg>
