<!-- Generator: Adobe Illustrator 22.1.0, SVG Export Plug-In  -->
<svg version="1.1"
	 xmlns="http://www.w3.org/2000/svg" xmlns:xlink="http://www.w3.org/1999/xlink" xmlns:a="http://ns.adobe.com/AdobeSVGViewerExtensions/3.0/"
	 x="0px" y="0px" width="254.3px" height="62.8px" viewBox="0 0 254.3 62.8" style="enable-background:new 0 0 254.3 62.8;"
	 xml:space="preserve">
<style type="text/css">
	.st0{fill:#939598;}
	.st1{font-family:'ArialMT';}
	.st2{font-size:13.034px;}
	.st3{filter:url(#Adobe_OpacityMaskFilter);}
	.st4{clip-path:url(#SVGID_3_);fill:none;}
	.st5{clip-path:url(#SVGID_3_);}
	.st6{opacity:0.498;mask:url(#SVGID_1_);fill-rule:evenodd;clip-rule:evenodd;}
	.st7{clip-path:url(#SVGID_15_);}
	.st8{fill-rule:evenodd;clip-rule:evenodd;fill:#FFFFFF;}
	.st9{filter:url(#Adobe_OpacityMaskFilter_1_);}
	.st10{clip-path:url(#SVGID_20_);fill:#FFFFFF;}
	.st11{clip-path:url(#SVGID_20_);}
	.st12{mask:url(#SVGID_18_);fill-rule:evenodd;clip-rule:evenodd;fill:#939598;}
	.st13{filter:url(#Adobe_OpacityMaskFilter_2_);}
	.st14{clip-path:url(#SVGID_25_);fill:#FFFFFF;}
	.st15{clip-path:url(#SVGID_25_);}
	.st16{mask:url(#SVGID_23_);fill-rule:evenodd;clip-rule:evenodd;fill:#939598;}
	.st17{fill-rule:evenodd;clip-rule:evenodd;fill:#E6E7E8;}
	.st18{filter:url(#Adobe_OpacityMaskFilter_3_);}
	.st19{clip-path:url(#SVGID_30_);fill:#FFFFFF;}
	.st20{clip-path:url(#SVGID_30_);}
	.st21{mask:url(#SVGID_28_);fill-rule:evenodd;clip-rule:evenodd;fill:#58595B;}
	.st22{fill-rule:evenodd;clip-rule:evenodd;fill:url(#SVGID_33_);}
	.st23{filter:url(#Adobe_OpacityMaskFilter_4_);}
	.st24{clip-path:url(#SVGID_36_);fill:none;}
	.st25{clip-path:url(#SVGID_36_);}
	.st26{opacity:0.498;mask:url(#SVGID_34_);fill-rule:evenodd;clip-rule:evenodd;}
	.st27{clip-path:url(#SVGID_48_);}
	.st28{filter:url(#Adobe_OpacityMaskFilter_5_);}
	.st29{clip-path:url(#SVGID_53_);fill:#FFFFFF;}
	.st30{clip-path:url(#SVGID_53_);}
	.st31{mask:url(#SVGID_51_);fill-rule:evenodd;clip-rule:evenodd;fill:#939598;}
	.st32{filter:url(#Adobe_OpacityMaskFilter_6_);}
	.st33{clip-path:url(#SVGID_58_);fill:#FFFFFF;}
	.st34{clip-path:url(#SVGID_58_);}
	.st35{mask:url(#SVGID_56_);fill-rule:evenodd;clip-rule:evenodd;fill:#939598;}
	.st36{filter:url(#Adobe_OpacityMaskFilter_7_);}
	.st37{clip-path:url(#SVGID_63_);fill:#FFFFFF;}
	.st38{clip-path:url(#SVGID_63_);}
	.st39{mask:url(#SVGID_61_);fill-rule:evenodd;clip-rule:evenodd;fill:#58595B;}
	.st40{fill-rule:evenodd;clip-rule:evenodd;fill:url(#SVGID_66_);}
</style>
<defs>
</defs>
<g>
	<path d="M231,29.2h8.1L235,19L231,29.2z M226.9,40.2h-6l11.4-26.7h6l11.6,26.7h-6.3l-2.5-6.4h-11.8L226.9,40.2z M208.1,18.2h-6.6
		v17.4h6.6c2.5,0,4.1-0.5,5-1.5c1.1-1.2,1.6-3.6,1.6-7.2c0-3.2-0.4-5.4-1.2-6.7C212.6,18.9,210.8,18.2,208.1,18.2z M208.4,40.2
		h-12.5V13.6h12.4c4.4,0,7.7,1.2,9.8,3.5c2,2.3,3.1,5.7,3.1,10.4c0,2.3-0.3,4.3-0.9,5.9c-0.8,2.1-2,3.7-3.7,4.9
		C214.4,39.6,211.7,40.2,208.4,40.2z M185.6,13.6h6v26.7h-6V13.6z M163.5,40.2h-5.8V13.6h7.2l11.1,19.2l-0.2-19.2h5.7v26.7h-6.5
		l-11.6-20.1L163.5,40.2z M142.5,18.4h-7v6.8h7c1.9,0,3.3-0.2,4-0.7c0.7-0.5,1.1-1.4,1.1-2.7c0-1.1-0.2-1.9-0.6-2.3
		C146.2,18.7,144.7,18.4,142.5,18.4z M135.5,40.2h-5.7V13.6h14c3.2,0,5.6,0.6,7.1,1.8c1.6,1.3,2.4,3.4,2.4,6.2
		c0,1.9-0.4,3.5-1.3,4.8c-0.9,1.4-2.3,2.2-4.1,2.7l6.7,11.2h-6.4l-6-10.4h-6.7V40.2z M112.8,13.1c2.7,0,4.9,0.4,6.7,1.1
		c2.2,0.9,3.8,2.2,5,4.2c1.3,2.2,1.9,5,1.9,8.6c0,4.4-1,7.8-2.9,10c-2.2,2.6-5.8,3.9-10.6,3.9c-4.6,0-8-1.2-10.2-3.5
		c-2.2-2.3-3.3-5.8-3.3-10.5c0-3.4,0.6-6.2,1.8-8.3c1.1-1.9,2.7-3.3,4.8-4.3C107.8,13.5,110.1,13.1,112.8,13.1z M105.5,26.9
		c0,2.9,0.5,5.1,1.5,6.6c1.2,1.8,3.2,2.8,5.8,2.8c2.6,0,4.5-0.9,5.7-2.5c1.1-1.6,1.7-3.8,1.7-6.7c0-1.6-0.1-3-0.4-4.1
		c-0.4-1.6-1.1-2.8-2.1-3.6c-1.2-1-2.8-1.6-4.9-1.6c-2.4,0-4.3,0.8-5.5,2.4C106.1,21.7,105.5,23.9,105.5,26.9z M81.5,40.2h-5.8V28
		c0-4.2,0.5-7.4,1.5-9.6c1-2,2.5-3.3,4.5-4c1.6-0.5,4-0.8,7.3-0.8h8.7v4.6h-9.2c-2.4,0-4.1,0.4-5.2,1.4c-1.2,1-1.8,2.7-1.8,5.2h16.3
		v4.6H81.5V40.2z"/>
	<g>
		<text transform="matrix(1 0 0 1 142.7471 54.1955)" class="st0 st1 st2">For what you need </text>
	</g>
	<g>
		<defs>
			<filter id="Adobe_OpacityMaskFilter" filterUnits="userSpaceOnUse" x="0" y="51.2" width="67.2" height="11.6">
				<feColorMatrix  type="matrix" values="1 0 0 0 0  0 1 0 0 0  0 0 1 0 0  0 0 0 1 0"/>
			</filter>
		</defs>
		<mask maskUnits="userSpaceOnUse" x="0" y="51.2" width="67.2" height="11.6" id="SVGID_1_">
			<g class="st3">
				<g>
					<g>
						<g>
							<defs>
								<rect id="SVGID_2_" y="51.2" width="67.2" height="11.6"/>
							</defs>
							<clipPath id="SVGID_3_">
								<use xlink:href="#SVGID_2_"  style="overflow:visible;"/>
							</clipPath>
							<g>
								<polygon class="st4" points="0,51.2 -67.1,51.2 -67,62.8 0.1,62.8 								"/>
								<g>
									<defs>
										<polygon id="SVGID_4_" points="0,51.2 -67.1,51.2 -67,62.8 0.1,62.8 										"/>
									</defs>
									<clipPath id="SVGID_5_" class="st5">
										<use xlink:href="#SVGID_4_"  style="overflow:visible;"/>
									</clipPath>
									<g transform="matrix(1 0 0 1 -3.725290e-08 0)" style="clip-path:url(#SVGID_5_);">
										
											<image style="overflow:visible;" width="673" height="673" xlink:href="14E23AF0A47DB7A9.jpg"  transform="matrix(-9.967200e-02 0 -1.750000e-04 -1.717800e-02 0.1177 62.7913)">
										</image>
									</g>
								</g>
							</g>
							<g>
								<polygon class="st4" points="0.1,62.8 -67,62.8 -66.8,74.4 0.2,74.4 								"/>
								<g>
									<defs>
										<polygon id="SVGID_6_" points="0.1,62.8 -67,62.8 -66.8,74.4 0.2,74.4 										"/>
									</defs>
									<clipPath id="SVGID_7_" class="st5">
										<use xlink:href="#SVGID_6_"  style="overflow:visible;"/>
									</clipPath>
									<g transform="matrix(1 0 0 1 -1.490116e-08 0)" style="clip-path:url(#SVGID_7_);">
										
											<image style="overflow:visible;" width="673" height="673" xlink:href="14E23AF0A47DB7AB.jpg"  transform="matrix(-9.967200e-02 0 -1.750000e-04 -1.717800e-02 0.2354 74.3528)">
										</image>
									</g>
								</g>
							</g>
							<g>
								<polygon class="st4" points="67.1,51.2 0,51.2 0.1,62.8 67.2,62.8 								"/>
								<g>
									<defs>
										<polygon id="SVGID_8_" points="67.1,51.2 0,51.2 0.1,62.8 67.2,62.8 										"/>
									</defs>
									<clipPath id="SVGID_9_" class="st5">
										<use xlink:href="#SVGID_8_"  style="overflow:visible;"/>
									</clipPath>
									<g transform="matrix(1 0 0 1 -7.629395e-06 0)" style="clip-path:url(#SVGID_9_);">
										
											<image style="overflow:visible;" width="673" height="673" xlink:href="14E23AF0A47DB7AE.jpg"  transform="matrix(-9.967200e-02 0 -1.750000e-04 -1.717800e-02 67.1968 62.7913)">
										</image>
									</g>
								</g>
							</g>
							<g>
								<polygon class="st4" points="67.2,62.8 0.1,62.8 0.2,74.4 67.3,74.4 								"/>
								<g>
									<defs>
										<polygon id="SVGID_10_" points="67.2,62.8 0.1,62.8 0.2,74.4 67.3,74.4 										"/>
									</defs>
									<clipPath id="SVGID_11_" class="st5">
										<use xlink:href="#SVGID_10_"  style="overflow:visible;"/>
									</clipPath>
									<g style="clip-path:url(#SVGID_11_);">
										
											<image style="overflow:visible;" width="673" height="673" xlink:href="14E23AF0A47DB7AF.jpg"  transform="matrix(-9.967200e-02 0 -1.750000e-04 -1.717800e-02 67.3145 74.3528)">
										</image>
									</g>
								</g>
							</g>
							<g>
								<polygon class="st4" points="134.2,51.2 67.1,51.2 67.2,62.8 134.3,62.8 								"/>
								<g>
									<defs>
										<polygon id="SVGID_12_" points="134.2,51.2 67.1,51.2 67.2,62.8 134.3,62.8 										"/>
									</defs>
									<clipPath id="SVGID_13_" class="st5">
										<use xlink:href="#SVGID_12_"  style="overflow:visible;"/>
									</clipPath>
									<g style="clip-path:url(#SVGID_13_);">
										
											<image style="overflow:visible;" width="673" height="673" xlink:href="14E23AF0A47DB7AA.jpg"  transform="matrix(-9.967200e-02 0 -1.750000e-04 -1.717800e-02 134.2764 62.7913)">
										</image>
									</g>
								</g>
							</g>
						</g>
					</g>
				</g>
			</g>
		</mask>
		<polygon class="st6" points="67.2,62.8 0.1,62.8 0,51.2 67.1,51.2 		"/>
		<g>
			<defs>
				<path id="SVGID_14_" d="M56,8.1c7.1,7,10.4,17.6,7.8,28.1C59.8,51.7,44.3,61,29,57c-0.6-0.2-1.2-0.3-1.8-0.5
					c-9.3-10-9.3-23.8-2.4-26.8l24.3-10.9c3.5-1.6,7.3-5.4,7.1-9.4l0-0.2l0,0l0-0.2v0c0-0.1,0-0.1,0-0.2v0l0-0.2L56,8.1L56,8.1z"/>
			</defs>
			<clipPath id="SVGID_15_">
				<use xlink:href="#SVGID_14_"  style="overflow:visible;"/>
			</clipPath>
			<g class="st7">
				<defs>
					<rect id="SVGID_16_" x="18" y="8.1" width="48.4" height="52.8"/>
				</defs>
				<clipPath id="SVGID_17_">
					<use xlink:href="#SVGID_16_"  style="overflow:visible;"/>
				</clipPath>
				<g style="clip-path:url(#SVGID_17_);">
					
						<image style="overflow:visible;" width="807" height="881" xlink:href="14E23AF0A47DB7A5.jpg"  transform="matrix(6.000000e-02 0 0 6.000000e-02 18.0034 8.1399)">
					</image>
				</g>
			</g>
		</g>
		<path class="st8" d="M48.5,2.8c-1.8,2-4.1,3.5-6.2,4.4L21,17C3.2,27.2,12,44.9,23.6,54.9c1.2,0.6,2.4,1.1,3.7,1.5
			c-9.3-10-7.8-24.4-1-27.5l22.8-10.2c3.7-1.7,7.8-5.9,7-10.2L56,8.1C53.8,6,51.3,4.2,48.5,2.8"/>
		<defs>
			<filter id="Adobe_OpacityMaskFilter_1_" filterUnits="userSpaceOnUse" x="10.9" y="2.8" width="45.3" height="53.2">
				<feColorMatrix  type="matrix" values="1 0 0 0 0  0 1 0 0 0  0 0 1 0 0  0 0 0 1 0"/>
			</filter>
		</defs>
		<mask maskUnits="userSpaceOnUse" x="10.9" y="2.8" width="45.3" height="53.2" id="SVGID_18_">
			<g class="st9">
				<g>
					<defs>
						<rect id="SVGID_19_" x="0.6" y="2.8" width="55.5" height="69.2"/>
					</defs>
					<clipPath id="SVGID_20_">
						<use xlink:href="#SVGID_19_"  style="overflow:visible;"/>
					</clipPath>
					
						<rect x="13.7" y="31.8" transform="matrix(0.1267 -0.9919 0.9919 0.1267 -41.3054 80.4354)" class="st10" width="22.7" height="63.8"/>
					
						<rect x="20.4" y="-20.8" transform="matrix(0.1267 -0.9919 0.9919 0.1267 16.6441 41.2308)" class="st11" width="22.7" height="63.8"/>
					<g>
						<defs>
							
								<rect id="SVGID_21_" x="9.5" y="5.5" transform="matrix(0.1267 -0.9919 0.9919 0.1267 -12.3311 60.8327)" width="37.8" height="63.8"/>
						</defs>
						<clipPath id="SVGID_22_" class="st11">
							<use xlink:href="#SVGID_21_"  style="overflow:visible;"/>
						</clipPath>
						<g transform="matrix(1 0 0 1 4.768372e-07 0)" style="clip-path:url(#SVGID_22_);">
							
								<image style="overflow:visible;" width="256" height="1" xlink:href="14E23AF0A47DB7A6.jpg"  transform="matrix(1.871900e-02 -0.1465 63.3162 8.0889 -5.6704 52.1301)">
							</image>
						</g>
					</g>
				</g>
			</g>
		</mask>
		<path class="st12" d="M48.5,2.8c-1.8,2-4.1,3.5-6.2,4.4L21,17C3.2,27.2,12,44.9,23.6,54.9c0.8,0.4,1.7,0.8,2.6,1.1
			C14.6,44.2,18,31,24.7,28l23.7-11.2c3.7-1.7,8.5-3.9,7.6-8.3L56,8.1C53.8,6,51.3,4.2,48.5,2.8"/>
		<path class="st8" d="M61.6,44.6c-22.1,22.2-43,0.8-26.2-6.1l16.4-6.7c8.9-3.7,10-8.5,5.4-15.8c-1.1,3.2-6.5,6.3-10.2,7.8l-14.3,6
			C11.9,38.7,33.5,78.6,61.6,44.6"/>
		<defs>
			<filter id="Adobe_OpacityMaskFilter_2_" filterUnits="userSpaceOnUse" x="24.4" y="16.1" width="37.2" height="42">
				<feColorMatrix  type="matrix" values="1 0 0 0 0  0 1 0 0 0  0 0 1 0 0  0 0 0 1 0"/>
			</filter>
		</defs>
		<mask maskUnits="userSpaceOnUse" x="24.4" y="16.1" width="37.2" height="42" id="SVGID_23_">
			<g class="st13">
				<g>
					<defs>
						<rect id="SVGID_24_" x="14.2" y="16.1" width="47.4" height="68.4"/>
					</defs>
					<clipPath id="SVGID_25_">
						<use xlink:href="#SVGID_24_"  style="overflow:visible;"/>
					</clipPath>
					
						<rect x="15.7" y="41.2" transform="matrix(0.3 -0.9539 0.9539 0.3 -49.3373 80.8997)" class="st14" width="29.6" height="65.7"/>
					<rect x="30.6" y="-6.4" transform="matrix(0.3 -0.954 0.954 0.3 6.5464 61.8573)" class="st15" width="29.6" height="65.7"/>
					<g>
						<defs>
							
								<rect id="SVGID_26_" x="25.2" y="17.4" transform="matrix(0.3 -0.9539 0.9539 0.3 -21.3959 71.3782)" width="25.4" height="65.7"/>
						</defs>
						<clipPath id="SVGID_27_" class="st15">
							<use xlink:href="#SVGID_26_"  style="overflow:visible;"/>
						</clipPath>
						<g transform="matrix(1 0 0 1 -1.430511e-06 0)" style="clip-path:url(#SVGID_27_);">
							
								<image style="overflow:visible;" width="256" height="1" xlink:href="14E23AF0A47DB7A7.jpg"  transform="matrix(2.979100e-02 -9.474100e-02 62.6846 19.7107 2.7813 52.5393)">
							</image>
						</g>
					</g>
				</g>
			</g>
		</mask>
		<path class="st16" d="M61.6,44.6c-23.1,25.8-44.8-0.8-27.7-7.2l16.7-7.2c8.8-3.7,11.8-6,6.6-14.2c-1.1,3.6-8.3,6.9-10.9,8
			l-13.6,5.7C11.9,38.7,33.5,78.6,61.6,44.6"/>
		<path class="st17" d="M43.3,0.9c1.8,0.5,3.6,1.1,5.2,1.9l0,0l0,0L48.3,3l-0.1,0.1l0,0l-0.1,0.1l0,0l0,0L48,3.4l0,0l-0.1,0.1l0,0
			l-0.1,0.1l0,0l0,0l-0.1,0.1l0,0l-0.1,0.1l0,0l-0.1,0.1l0,0l-0.1,0l-0.1,0.1l0,0l-0.2,0.2l0,0l-0.1,0l-0.1,0.1l0,0l-0.1,0.1l0,0
			l-0.1,0.1l0,0l-0.1,0l-0.1,0.1l0,0l-0.1,0.1h0l-0.1,0.1l0,0l-0.1,0.1l-0.1,0l0,0L46,5.1l0,0l-0.1,0.1l0,0l-0.1,0.1l-0.1,0.1
			l-0.1,0.1l0,0l-0.1,0.1l0,0l-0.1,0.1l-0.1,0l0,0l-0.1,0.1l0,0l-0.1,0.1l0,0L45,5.8l-0.1,0l0,0l-0.1,0.1l0,0L44.7,6l0,0L44.6,6
			l-0.1,0l0,0l-0.1,0.1l0,0l-0.1,0.1l0,0l-0.1,0l0,0l-0.1,0l-0.1,0l0,0l-0.1,0.1l0,0l-0.1,0l-0.1,0.1l-0.1,0l0,0l-0.1,0.1l0,0
			l-0.1,0l0,0l-0.1,0l-0.1,0l0,0l-0.1,0.1l0,0l-0.1,0l0,0l-0.1,0l-0.1,0l0,0l-0.1,0l0,0l-0.1,0l0,0l-0.1,0l-0.1,0l0,0l-0.1,0L21,17
			c-0.3,0.2-0.6,0.3-0.9,0.5l-0.2,0.1c-0.2,0.1-0.4,0.3-0.6,0.4c-0.1,0.1-0.2,0.1-0.3,0.2c-0.2,0.1-0.3,0.2-0.4,0.3l-0.3,0.2
			c-0.1,0.1-0.3,0.2-0.4,0.3l-0.3,0.2c-0.1,0.1-0.3,0.2-0.4,0.3l-0.3,0.2c-0.1,0.1-0.3,0.2-0.4,0.3l-0.2,0.2
			c-0.1,0.1-0.2,0.2-0.4,0.4l-0.2,0.2c-0.1,0.1-0.2,0.2-0.3,0.4c-0.1,0.1-0.1,0.1-0.2,0.2c-0.1,0.2-0.3,0.3-0.4,0.5l-0.1,0.1
			c-0.2,0.2-0.3,0.4-0.5,0.6L13.9,23c-0.1,0.1-0.2,0.3-0.3,0.4c-0.1,0.1-0.1,0.2-0.2,0.3c-0.1,0.1-0.2,0.2-0.2,0.4
			c-0.1,0.1-0.1,0.2-0.2,0.3l-0.2,0.3L12.7,25c-0.1,0.1-0.1,0.2-0.2,0.4l-0.1,0.3c-0.1,0.1-0.1,0.3-0.2,0.4l-0.1,0.3l-0.1,0.4
			l-0.1,0.3c0,0.1-0.1,0.3-0.1,0.4l-0.1,0.3c0,0.1-0.1,0.3-0.1,0.4l-0.1,0.2c-0.1,0.2-0.1,0.4-0.2,0.7l0,0c0,0.2-0.1,0.4-0.1,0.7
			l0,0.2c0,0.1,0,0.3-0.1,0.4l0,0.3c0,0.1,0,0.3,0,0.4l0,0.3c0,0.1,0,0.3,0,0.4l0,0.3l0,0.4l0,0.3l0,0.4l0,0.3l0,0.4l0,0.3l0,0.4
			l0,0.2c0,0.2,0,0.3,0.1,0.5l0,0.2c0,0.2,0.1,0.4,0.1,0.7l0,0l0,0.1c0,0.2,0.1,0.4,0.1,0.5l0,0.2c0,0.2,0.1,0.3,0.1,0.5l0.1,0.3
			l0.1,0.4l0.1,0.3l0.1,0.4l0.1,0.3l0.1,0.4l0.1,0.3l0.2,0.4l0.1,0.2l0.2,0.4l0.1,0.3l0.2,0.4l0.1,0.3c0.1,0.2,0.1,0.3,0.2,0.5
			l0.1,0.2l0,0c0.1,0.2,0.2,0.4,0.3,0.7l0.1,0.1l0.3,0.6l0.1,0.2l0.3,0.4l0.2,0.3l0.2,0.3l0.2,0.3l0.2,0.4l0.2,0.3l0.2,0.3l0.2,0.3
			l0.3,0.4l0.2,0.3l0.3,0.4l0.1,0.2l0.4,0.5l0.1,0.1c0.2,0.2,0.3,0.4,0.5,0.6l0,0c0.2,0.2,0.3,0.4,0.5,0.6l0,0l0.2,0.2l0.3,0.4
			l0.2,0.2l0.3,0.4l0.2,0.2l0.4,0.4l0.2,0.2l0.3,0.4l0.2,0.2l0.4,0.4l0.2,0.2l0.4,0.4l0.1,0.1l0.4,0.3l0.2,0.2l0,0l0.5,0.5l0,0
			l0.5,0.5C11.7,49,5.1,35.2,8.6,21.7C12.5,6.2,28.1-3.1,43.3,0.9"/>
		<defs>
			<filter id="Adobe_OpacityMaskFilter_3_" filterUnits="userSpaceOnUse" x="7.7" y="0" width="40.8" height="54.9">
				<feColorMatrix  type="matrix" values="1 0 0 0 0  0 1 0 0 0  0 0 1 0 0  0 0 0 1 0"/>
			</filter>
		</defs>
		<mask maskUnits="userSpaceOnUse" x="7.7" y="0" width="40.8" height="54.9" id="SVGID_28_">
			<g class="st18">
				<g>
					<defs>
						<rect id="SVGID_29_" x="-3.3" y="-30.8" width="51.8" height="85.7"/>
					</defs>
					<clipPath id="SVGID_30_">
						<use xlink:href="#SVGID_29_"  style="overflow:visible;"/>
					</clipPath>
					
						<rect x="-16.4" y="-13.9" transform="matrix(0.7384 -0.6743 0.6743 0.7384 -24.507 7.3302)" class="st19" width="27.3" height="98.2"/>
					
						<rect x="34.3" y="-60.2" transform="matrix(0.7384 -0.6743 0.6743 0.7384 20.0504 29.4457)" class="st20" width="27.3" height="98.2"/>
					<g>
						<defs>
							
								<rect id="SVGID_31_" x="-3.3" y="-37" transform="matrix(0.7384 -0.6743 0.6743 0.7384 -2.2282 18.3886)" width="51.9" height="98.2"/>
						</defs>
						<clipPath id="SVGID_32_" class="st20">
							<use xlink:href="#SVGID_31_"  style="overflow:visible;"/>
						</clipPath>
						<g transform="matrix(1 -2.980232e-08 2.980232e-08 1 0 -4.768372e-07)" style="clip-path:url(#SVGID_32_);">
							
								<image style="overflow:visible;" width="256" height="1" xlink:href="14E23AF0A47DB7B9.jpg"  transform="matrix(0.1496 -0.1366 66.2392 72.5352 -29.6826 -6.7121)">
							</image>
						</g>
					</g>
				</g>
			</g>
		</mask>
		<path class="st21" d="M43.3,0.9c1.8,0.5,3.6,1.1,5.2,1.9l0,0l0,0L48.3,3l-0.1,0.1l0,0l-0.1,0.1l0,0l0,0L48,3.4l0,0l-0.1,0.1l0,0
			l-0.1,0.1l0,0l0,0l-0.1,0.1l0,0l-0.1,0.1l0,0l-0.1,0.1l0,0l-0.1,0l-0.1,0.1l0,0l-0.2,0.2l0,0l-0.1,0l-0.1,0.1l0,0l-0.1,0.1l0,0
			l-0.1,0.1l0,0l-0.1,0l-0.1,0.1l0,0l-0.1,0.1h0l-0.1,0.1l0,0l-0.1,0.1l-0.1,0l0,0L46,5.1l0,0l-0.1,0.1l0,0l-0.1,0.1l-0.1,0.1
			l-0.1,0.1l0,0l-0.1,0.1l0,0l-0.1,0.1l-0.1,0l0,0l-0.1,0.1l0,0l-0.1,0.1l0,0L45,5.8l-0.1,0l0,0l-0.1,0.1l0,0L44.7,6l0,0L44.6,6
			l-0.1,0l0,0l-0.1,0.1l0,0l-0.1,0.1l0,0l-0.1,0l0,0l-0.1,0l-0.1,0l0,0l-0.1,0.1l0,0l-0.1,0l-0.1,0.1l-0.1,0l0,0l-0.1,0.1l0,0
			l-0.1,0l0,0l-0.1,0l-0.1,0l0,0l-0.1,0.1l0,0l-0.1,0l0,0l-0.1,0l-0.1,0l0,0l-0.1,0l0,0l-0.1,0l0,0l-0.1,0l-0.1,0l0,0l-0.1,0L21,17
			c-0.3,0.2-0.6,0.3-0.9,0.5l-0.2,0.1c-0.2,0.1-0.4,0.3-0.6,0.4c-0.1,0.1-0.2,0.1-0.3,0.2c-0.2,0.1-0.3,0.2-0.4,0.3l-0.3,0.2
			c-0.1,0.1-0.3,0.2-0.4,0.3l-0.3,0.2c-0.1,0.1-0.3,0.2-0.4,0.3l-0.3,0.2c-0.1,0.1-0.3,0.2-0.4,0.3l-0.2,0.2
			c-0.1,0.1-0.2,0.2-0.4,0.4l-0.2,0.2c-0.1,0.1-0.2,0.2-0.3,0.4c-0.1,0.1-0.1,0.1-0.2,0.2c-0.1,0.2-0.3,0.3-0.4,0.5l-0.1,0.1
			c-0.2,0.2-0.3,0.4-0.5,0.6L13.9,23c-0.1,0.1-0.2,0.3-0.3,0.4c-0.1,0.1-0.1,0.2-0.2,0.3c-0.1,0.1-0.2,0.2-0.2,0.4
			c-0.1,0.1-0.1,0.2-0.2,0.3l-0.2,0.3L12.7,25c-0.1,0.1-0.1,0.2-0.2,0.4l-0.1,0.3c-0.1,0.1-0.1,0.3-0.2,0.4l-0.1,0.3l-0.1,0.4
			l-0.1,0.3c0,0.1-0.1,0.3-0.1,0.4l-0.1,0.3c0,0.1-0.1,0.3-0.1,0.4l-0.1,0.2c-0.1,0.2-0.1,0.4-0.2,0.7l0,0c0,0.2-0.1,0.4-0.1,0.7
			l0,0.2c0,0.1,0,0.3-0.1,0.4l0,0.3c0,0.1,0,0.3,0,0.4l0,0.3c0,0.1,0,0.3,0,0.4l0,0.3l0,0.4l0,0.3l0,0.4l0,0.3l0,0.4l0,0.3l0,0.4
			l0,0.2c0,0.2,0,0.3,0.1,0.5l0,0.2c0,0.2,0.1,0.4,0.1,0.7l0,0l0,0.1c0,0.2,0.1,0.4,0.1,0.5l0,0.2c0,0.2,0.1,0.3,0.1,0.5l0.1,0.3
			l0.1,0.4l0.1,0.3l0.1,0.4l0.1,0.3l0.1,0.4l0.1,0.3l0.2,0.4l0.1,0.2l0.2,0.4l0.1,0.3l0.2,0.4l0.1,0.3c0.1,0.2,0.1,0.3,0.2,0.5
			l0.1,0.2l0,0c0.1,0.2,0.2,0.4,0.3,0.7l0.1,0.1l0.3,0.6l0.1,0.2l0.3,0.4l0.2,0.3l0.2,0.3l0.2,0.3l0.2,0.4l0.2,0.3l0.2,0.3l0.2,0.3
			l0.3,0.4l0.2,0.3l0.3,0.4l0.1,0.2l0.4,0.5l0.1,0.1c0.2,0.2,0.3,0.4,0.5,0.6l0,0c0.2,0.2,0.3,0.4,0.5,0.6l0,0l0.2,0.2l0.3,0.4
			l0.2,0.2l0.3,0.4l0.2,0.2l0.4,0.4l0.2,0.2l0.3,0.4l0.2,0.2l0.4,0.4l0.2,0.2l0.4,0.4l0.1,0.1l0.4,0.3l0.2,0.2l0,0l0.5,0.5l0,0
			l0.5,0.5C11.7,49,5.1,35.2,8.6,21.7C12.5,6.2,28.1-3.1,43.3,0.9"/>
		
			<radialGradient id="SVGID_33_" cx="29.5226" cy="57.0114" r="13.6696" gradientTransform="matrix(0.9532 0 0 0.3551 3.3173 36.7645)" gradientUnits="userSpaceOnUse">
			<stop  offset="0" style="stop-color:#000000;stop-opacity:0.5"/>
			<stop  offset="0.9133" style="stop-color:#000000;stop-opacity:0"/>
		</radialGradient>
		<ellipse class="st22" cx="31.5" cy="57" rx="16.4" ry="5.4"/>
	</g>
</g>
</svg>
