<!-- Generator: Adobe Illustrator 22.1.0, SVG Export Plug-In  -->
<svg version="1.1"
	 xmlns="http://www.w3.org/2000/svg" xmlns:xlink="http://www.w3.org/1999/xlink" xmlns:a="http://ns.adobe.com/AdobeSVGViewerExtensions/3.0/"
	 x="0px" y="0px" width="177.5px" height="187.2px" viewBox="0 0 177.5 187.2" style="enable-background:new 0 0 177.5 187.2;"
	 xml:space="preserve">
<style type="text/css">
	.st0{fill:#FFFFFF;}
</style>
<defs>
</defs>
<g>
	<path d="M177.5,49.3c-0.2,1.8-0.3,3.5-0.6,5.3c-1.8,12.5-7.7,22.8-17.5,30.7c-7.5,6.1-16.2,9.6-25.8,10.3c-13.2,1-25-2.7-35.2-11.3
		c-8.8-7.5-14.3-17.1-16.1-28.5c-2.2-13.5,0.8-25.8,9.1-36.7c7.1-9.5,16.6-15.4,28.2-18c25.6-5.6,51.5,11.2,56.8,36.9
		c0.5,2.5,0.7,5,1,7.6c0,0.4,0.1,0.7,0.2,1.1C177.5,47.5,177.5,48.4,177.5,49.3z M124.7,52.7c0,0.5,0,0.8,0,1.2c0,2.9,0,5.8,0,8.7
		c0,4.6,0,9.2,0,13.7c0,2.6,1.7,4.6,4,4.9c3.1,0.4,5.5-1.8,5.5-5c0-7.4,0-14.9,0-22.3c0-0.4,0-0.7,0-1.2c0.4,0,0.8,0,1.1,0
		c2.9,0,5.7,0,8.6,0c4.6,0,9.2,0,13.8,0c3.3,0,5.5-2.6,4.9-5.7c-0.4-2.3-2.4-3.8-5-3.8c-7.4,0-14.9,0-22.3,0c-0.4,0-0.7,0-1.1,0
		c0-2.4,0-4.7,0-7c0-5.5,0-11.1,0-16.6c0-2.9-2.2-5.1-5-5c-2.6,0.1-4.5,2.2-4.6,5c0,7.4,0,14.9,0,22.3c0,0.4,0,0.7,0,1.2
		c-0.5,0-0.9,0-1.2,0c-7.2,0-14.4,0-21.7,0c-0.4,0-0.8,0-1.2,0c-2.5,0.2-4.4,2.2-4.4,4.7c0,2.8,2.1,4.8,5.1,4.8c7.4,0,14.8,0,22.2,0
		C123.8,52.7,124.2,52.7,124.7,52.7z"/>
	<path d="M129.8,187.2c-0.7-0.2-1.4-0.3-2-0.5c-6.5-1.7-11.1-7.9-10.7-14.5c0.4-7.1,5.5-12.7,12.4-13.7c7.7-1.1,15,4.4,16.2,12
		c1.2,7.9-4.2,15.2-12,16.4c-0.2,0-0.4,0.1-0.6,0.2C131.9,187.2,130.8,187.2,129.8,187.2z"/>
	<path d="M47.1,187.2c-0.6-0.1-1.3-0.3-1.9-0.4c-6.7-1.7-11.2-7.9-10.8-14.8c0.4-6.7,5.7-12.4,12.4-13.3c7.8-1.1,15,4.4,16.2,12.3
		c1.1,7.6-4.3,14.9-12,16.2c-0.2,0-0.4,0.1-0.5,0.2C49.2,187.2,48.1,187.2,47.1,187.2z"/>
	<path d="M19.3,60c-3.8,0-7.6,0-11.3,0c-0.7,0-1.3,0-2-0.1c-3.6-0.6-6.2-3.8-6-7.5c0.2-3.7,3.1-6.7,6.8-6.7c6.2-0.1,12.4-0.1,18.6,0
		c3.6,0.1,6.2,2.4,6.9,6c1.2,5.7,2.3,11.4,3.5,17.2c0.4,0,0.8,0,1.1,0c13.5,0,27.1,0,40.6,0c0.8,0,1.2,0.3,1.5,1
		C87,87.1,100.3,98,119,102c8.4,1.8,16.8,1.3,25.1-0.9c0.2-0.1,0.4-0.1,0.6-0.2c0.1,0,0.1,0,0.3,0.1c-0.6,1.6-1.1,3.1-1.7,4.7
		c-1.4,3.8-2.8,7.6-4.2,11.5c-1.1,2.9-3.8,4.8-6.9,4.8c-28.1,0-56.1,0-84.2,0c-0.4,0-0.8,0-1.4,0c0.3,1.4,0.5,2.7,0.8,4
		c0.6,2.7,1.2,5.5,1.7,8.2c0.1,0.7,0.4,0.9,1.1,0.8c6.4,0,12.9,0,19.3,0c22.3,0,44.7,0,67,0c1.5,0,3,0.2,4.4,0.7
		c3.1,1.2,4.7,4.5,4,7.8c-0.6,3.2-3.3,5.6-6.6,5.8c-0.7,0-1.4,0.1-2.1,0.1c-30.6,0-61.2,0-91.9,0c-4.5,0-7.2-2.1-8.1-6.6
		c-1.4-6.6-2.7-13.1-4-19.7c-3.4-16.7-6.8-33.4-10.2-50.1C21.1,68.7,20.2,64.4,19.3,60z"/>
	<path class="st0" d="M124.7,52.7c-0.5,0-0.9,0-1.3,0c-7.4,0-14.8,0-22.2,0c-2.9,0-5.1-2.1-5.1-4.8c0-2.5,1.9-4.6,4.4-4.7
		c0.4,0,0.8,0,1.2,0c7.2,0,14.4,0,21.7,0c0.4,0,0.7,0,1.2,0c0-0.5,0-0.9,0-1.2c0-7.4,0-14.9,0-22.3c0-2.8,1.9-4.9,4.6-5
		c2.8-0.1,5,2,5,5c0,5.5,0,11.1,0,16.6c0,2.3,0,4.6,0,7c0.4,0,0.8,0,1.1,0c7.4,0,14.9,0,22.3,0c2.6,0,4.6,1.5,5,3.8
		c0.6,3.1-1.7,5.7-4.9,5.7c-4.6,0-9.2,0-13.8,0c-2.9,0-5.7,0-8.6,0c-0.3,0-0.7,0-1.1,0c0,0.5,0,0.8,0,1.2c0,7.4,0,14.9,0,22.3
		c0,3.2-2.4,5.4-5.5,5c-2.4-0.3-4-2.3-4-4.9c0-4.6,0-9.2,0-13.7c0-2.9,0-5.8,0-8.7C124.7,53.6,124.7,53.2,124.7,52.7z"/>
</g>
</svg>
